<?xml version="1.0" encoding="utf-8"?>
<!-- Generator: Adobe Illustrator 23.0.1, SVG Export Plug-In . SVG Version: 6.00 Build 0)  -->
<svg version="1.1" id="loog-2" xmlns="http://www.w3.org/2000/svg" xmlns:xlink="http://www.w3.org/1999/xlink" x="0px" y="0px"
	 viewBox="0 0 500 500" style="enable-background:new 0 0 500 500;" xml:space="preserve">
<style type="text/css">
	.st0{fill:#FFFFFF;}
	.st1{fill:url(#SVGID_1_);}
	.st2{fill:url(#SVGID_2_);}
	.st3{fill:url(#SVGID_3_);}
	.st4{fill:url(#SVGID_4_);}
	.st5{fill:url(#SVGID_5_);}
	.st6{fill:url(#SVGID_6_);}
	.st7{fill:url(#SVGID_7_);}
</style>
<g id="teglageci">
	<path class="st0" d="M391,500H109C48.8,500,0,451.2,0,391V109C0,48.8,48.8,0,109,0h279.9C450.3,0,500,49.7,500,111.1V391
		C500,451.2,451.2,500,391,500z"/>
</g>
<g>
	<linearGradient id="SVGID_1_" gradientUnits="userSpaceOnUse" x1="436.5" y1="250" x2="63.5" y2="250">
		<stop  offset="0" style="stop-color:#910A01"/>
		<stop  offset="0.2501" style="stop-color:#A3150B"/>
		<stop  offset="0.7489" style="stop-color:#D13125"/>
		<stop  offset="1" style="stop-color:#EB4034"/>
	</linearGradient>
	<path class="st1" d="M427.7,122c-0.1-14.2-11.7-25.7-25.9-25.7h-1l-150.9,35.6L99.1,98.6h-0.9c-14.2,0-25.8,11.5-25.9,25.7
		l-8.8,219.9l0,0.3c0,14,11.1,25.4,24.9,25.9l154.9,32.8l0.8,0.1c0.5,0.1,1,0.1,1.4,0.1c1.2,0,2.4-0.2,3.5-0.5
		c1.2,0.4,2.5,0.6,3.7,0.6c0.4,0,0.9,0,1.4-0.1l0.4-0.1l157.1-35.4c13.6-0.6,24.9-12.7,24.9-26.9v-0.2L427.7,122z M89.4,353.5
		c-4.9,0-8.8-3.9-8.9-8.8l8.8-219.9l0-0.3c0-4.6,3.6-8.5,8.1-8.9l144.1,31.9v238.1L90.3,353.5H89.4z M410.6,351.2h-0.9l-151.2,34
		V147.4l144.1-34c4.5,0.4,8.1,4.2,8.1,8.9v0.2l8.8,219.1C419.4,346.6,415.2,351.2,410.6,351.2z"/>
	<linearGradient id="SVGID_2_" gradientUnits="userSpaceOnUse" x1="385.8816" y1="178.227" x2="287.3745" y2="178.227">
		<stop  offset="0" style="stop-color:#910A01"/>
		<stop  offset="0.2501" style="stop-color:#A3150B"/>
		<stop  offset="0.7489" style="stop-color:#D13125"/>
		<stop  offset="1" style="stop-color:#EB4034"/>
	</linearGradient>
	<path class="st2" d="M377.1,160.4l-83.7,20c-3.6,0.6-6.2,3.8-6.1,7.4l0,1.1c0.1,4.6,4.3,8,8.8,7.2l83.6-21.1c3.4-0.7,5.9-3.6,6-7.1
		C386,163.2,381.8,159.5,377.1,160.4z"/>
	<linearGradient id="SVGID_3_" gradientUnits="userSpaceOnUse" x1="215.8816" y1="178.227" x2="117.3745" y2="178.227">
		<stop  offset="0" style="stop-color:#910A01"/>
		<stop  offset="0.2501" style="stop-color:#A3150B"/>
		<stop  offset="0.7489" style="stop-color:#D13125"/>
		<stop  offset="1" style="stop-color:#EB4034"/>
	</linearGradient>
	<path class="st3" d="M209.8,180.4l-83.7-20c-4.6-0.8-8.9,2.8-8.7,7.5c0.1,3.5,2.6,6.4,6,7.1l83.6,21.1c4.5,0.9,8.7-2.5,8.8-7.2
		l0-1.1C215.9,184.2,213.4,181,209.8,180.4z"/>
	<linearGradient id="SVGID_4_" gradientUnits="userSpaceOnUse" x1="385.8815" y1="324.401" x2="287.3745" y2="324.401">
		<stop  offset="0" style="stop-color:#910A01"/>
		<stop  offset="0.2501" style="stop-color:#A3150B"/>
		<stop  offset="0.7489" style="stop-color:#D13125"/>
		<stop  offset="1" style="stop-color:#EB4034"/>
	</linearGradient>
	<path class="st4" d="M377.1,306.5l-83.7,20c-3.6,0.6-6.2,3.8-6.1,7.4l0,1.1c0.1,4.6,4.3,8,8.8,7.2l83.6-21.1c3.4-0.7,5.9-3.6,6-7.1
		v0C386,309.4,381.8,305.7,377.1,306.5z"/>
	<linearGradient id="SVGID_5_" gradientUnits="userSpaceOnUse" x1="215.8816" y1="252.408" x2="117.3745" y2="252.408">
		<stop  offset="0" style="stop-color:#910A01"/>
		<stop  offset="0.2501" style="stop-color:#A3150B"/>
		<stop  offset="0.7489" style="stop-color:#D13125"/>
		<stop  offset="1" style="stop-color:#EB4034"/>
	</linearGradient>
	<path class="st5" d="M209.8,254.6l-83.7-20c-4.6-0.8-8.9,2.8-8.7,7.5c0.1,3.5,2.6,6.4,6,7.1l83.6,21.1c4.5,0.9,8.7-2.5,8.8-7.2
		l0-1.1C215.9,258.4,213.4,255.2,209.8,254.6z"/>
	<linearGradient id="SVGID_6_" gradientUnits="userSpaceOnUse" x1="385.8816" y1="252.408" x2="287.3745" y2="252.408">
		<stop  offset="0" style="stop-color:#910A01"/>
		<stop  offset="0.2501" style="stop-color:#A3150B"/>
		<stop  offset="0.7489" style="stop-color:#D13125"/>
		<stop  offset="1" style="stop-color:#EB4034"/>
	</linearGradient>
	<path class="st6" d="M377.1,234.5l-83.7,20c-3.6,0.6-6.2,3.8-6.1,7.4l0,1.1c0.1,4.6,4.3,8,8.8,7.2l83.6-21.1c3.4-0.7,5.9-3.6,6-7.1
		C386,237.4,381.8,233.7,377.1,234.5z"/>
	<linearGradient id="SVGID_7_" gradientUnits="userSpaceOnUse" x1="215.8816" y1="324.401" x2="117.3745" y2="324.401">
		<stop  offset="0" style="stop-color:#910A01"/>
		<stop  offset="0.2501" style="stop-color:#A3150B"/>
		<stop  offset="0.7489" style="stop-color:#D13125"/>
		<stop  offset="1" style="stop-color:#EB4034"/>
	</linearGradient>
	<path class="st7" d="M209.8,327.5l-83.7-20c-4.6-0.8-8.9,2.8-8.7,7.5c0.1,3.5,2.6,6.4,6,7.1l83.6,19.1c4.5,0.9,8.7-0.5,8.8-5.2
		l0-1.1C215.9,331.3,213.4,328.1,209.8,327.5z"/>
</g>
</svg>
